<?xml version="1.0" standalone="no"?>
<!DOCTYPE svg PUBLIC "-//W3C//DTD SVG 20010904//EN"
 "http://www.w3.org/TR/2001/REC-SVG-20010904/DTD/svg10.dtd">
<svg version="1.0" xmlns="http://www.w3.org/2000/svg"
 width="898.000000pt" height="898.000000pt" viewBox="0 0 898.000000 898.000000"
 preserveAspectRatio="xMidYMid meet">
<metadata>
Created by potrace 1.11, written by Peter Selinger 2001-2013
</metadata>
<g transform="translate(0.000000,898.000000) scale(0.100000,-0.100000)"
fill="#000000" stroke="none">
<path d="M4210 8964 c-19 -2 -91 -9 -160 -15 -502 -44 -1054 -201 -1526 -433
-459 -225 -810 -474 -1172 -830 -571 -562 -958 -1210 -1177 -1973 -277 -964
-216 -2003 172 -2953 131 -321 363 -720 583 -1005 183 -237 487 -553 700 -726
537 -439 1129 -737 1780 -898 334 -83 618 -120 980 -128 435 -10 791 30 1205
133 1047 262 1978 913 2598 1817 1044 1520 1044 3544 0 5064 -620 904 -1551
1555 -2598 1817 -390 97 -727 137 -1129 134 -122 0 -237 -3 -256 -4z m555
-1844 c391 -67 740 -287 953 -601 71 -105 157 -306 178 -414 4 -25 12 -37 28
-40 11 -2 86 -16 166 -30 913 -163 1684 -473 2188 -881 l52 -43 -126 -41
c-350 -114 -818 -211 -1368 -285 -139 -18 -232 -37 -306 -60 -406 -127 -859
-203 -1475 -246 -219 -16 -881 -16 -1100 0 -615 43 -1141 131 -1475 246 -50
17 -141 34 -270 51 -417 53 -841 130 -1130 205 -169 43 -411 117 -422 128 -9
8 148 132 262 208 169 113 492 282 697 364 371 149 935 302 1386 375 74 12
107 21 107 30 0 35 67 219 113 308 192 375 572 648 1014 725 152 27 374 27
528 1z m-191 -2816 c9 -8 16 -16 16 -17 1 -1 5 -544 10 -1207 10 -1326 13
-1250 -50 -1250 -51 0 -57 16 -64 172 -3 79 -8 624 -11 1212 -5 993 -4 1070
11 1087 21 23 67 25 88 3z m-454 -114 c11 -11 20 -28 20 -37 1 -29 -542 -1636
-558 -1655 -32 -38 -102 -13 -102 37 0 45 541 1639 562 1658 26 23 53 22 78
-3z m933 -28 c9 -10 140 -385 291 -834 298 -887 289 -849 223 -872 -22 -8 -31
-6 -48 11 -14 13 -114 297 -295 834 -151 447 -274 819 -274 826 0 21 38 53 63
53 13 0 31 -8 40 -18z"/>
<path d="M4296 7005 c-502 -82 -894 -401 -1037 -844 -15 -47 -25 -89 -21 -93
10 -10 176 -52 327 -82 532 -108 1249 -114 1805 -16 105 19 401 87 408 95 7 7
-43 156 -78 231 -107 230 -312 442 -548 567 -98 52 -256 107 -377 132 -111 24
-364 29 -479 10z"/>
<path d="M3045 5939 c-281 -52 -450 -88 -615 -130 -201 -51 -455 -127 -448
-134 7 -7 359 -63 528 -84 616 -78 1205 -111 1980 -111 797 0 1420 36 2020
116 197 26 481 72 488 79 16 16 -539 164 -823 219 -338 65 -301 63 -482 17
-401 -102 -844 -149 -1308 -138 -387 10 -755 56 -1050 134 -153 40 -214 46
-290 32z"/>
<path d="M1630 5550 c-152 -63 -446 -214 -562 -287 -139 -89 -154 -100 -147
-107 8 -8 336 -91 494 -125 1161 -245 3017 -328 4595 -206 667 52 1273 137
1735 245 150 34 315 82 315 90 0 9 -146 104 -255 167 -109 63 -300 157 -435
213 l-123 52 -156 -31 c-710 -140 -1586 -211 -2596 -211 -997 0 -1862 69
-2560 202 -88 17 -171 32 -185 34 -14 2 -68 -15 -120 -36z"/>
<path d="M5570 4669 c-482 -31 -1440 -35 -1992 -8 -125 6 -233 9 -240 7 -15
-5 216 -33 446 -54 225 -21 951 -30 1214 -15 223 13 545 44 682 65 95 15 63
17 -110 5z"/>
</g>
</svg>
