<svg xmlns="http://www.w3.org/2000/svg" xmlns:xlink="http://www.w3.org/1999/xlink" viewBox="0 0 215.23 215.23"><defs><style>.cls-1{fill:url(#Earthtone_30);}.cls-2{fill:#fff;}</style><linearGradient id="Earthtone_30" y1="107.62" x2="215.23" y2="107.62" gradientUnits="userSpaceOnUse"><stop offset="0" stop-color="#4a6876"/><stop offset="0.54" stop-color="#0a3542"/><stop offset="1" stop-color="#000315"/></linearGradient></defs><title>Asset 10</title><g id="Layer_2" data-name="Layer 2"><g id="Layer_2-2" data-name="Layer 2"><circle class="cls-1" cx="107.62" cy="107.62" r="107.62"/><text/><path class="cls-2" d="M42.79,54.32h.47l1.29,4.51c.17.61.34,1.17.48,1.76h0c.17-.59.34-1.15.51-1.76l1.29-4.51h.58l1.29,4.51c.17.61.34,1.17.51,1.76h.05c.17-.59.34-1.15.51-1.76l1.26-4.51h.45l-2,6.69H49l-1.26-4.37c-.2-.64-.34-1.26-.54-1.9h0c-.17.64-.34,1.29-.56,1.93L45.34,61H44.8Z"/><path class="cls-2" d="M52.61,57.68c0-2.19,1.4-3.53,2.89-3.53S58,55.24,58,57.23a2.43,2.43,0,0,1,0,.45H53.06c0,1.79,1,3.11,2.64,3.11a3,3,0,0,0,1.84-.62l.2.37a3.6,3.6,0,0,1-2.07.64C54,61.18,52.61,59.86,52.61,57.68Zm5-.39c0-1.85-.84-2.75-2.1-2.75s-2.3,1-2.44,2.75Z"/><path class="cls-2" d="M63.14,60.34h0l0,.67h-.37V50.9h.42v3l0,1.34a4,4,0,0,1,2.38-1.09c1.82,0,2.69,1.34,2.69,3.42,0,2.27-1.38,3.61-3,3.61A3.61,3.61,0,0,1,63.14,60.34Zm4.57-2.77c0-1.71-.62-3-2.27-3a3.75,3.75,0,0,0-2.33,1.18v4.14a3.41,3.41,0,0,0,2.11.93C66.67,60.79,67.71,59.44,67.71,57.57Z"/><path class="cls-2" d="M70.11,58.63V54.32h.42v4.26c0,1.48.48,2.21,1.63,2.21.84,0,1.46-.45,2.3-1.46v-5h.42V61h-.37l-.05-1.15h0a3,3,0,0,1-2.3,1.32C70.76,61.18,70.11,60.37,70.11,58.63Z"/><path class="cls-2" d="M77.31,52.13a.48.48,0,0,1,1,0,.48.48,0,1,1-1,0Zm.25,2.19H78V61h-.42Z"/><path class="cls-2" d="M80.67,60.28V50.9h.42v9.47c0,.28.11.42.28.42a1,1,0,0,0,.25,0l.09.37a1.74,1.74,0,0,1-.37,0C80.92,61.18,80.67,60.93,80.67,60.28Z"/><path class="cls-2" d="M83.3,57.68c0-2.16,1.37-3.53,3-3.53a3.22,3.22,0,0,1,2.07.84l0-1.26V50.9h.42V61H88.4l-.06-.89h0a3.23,3.23,0,0,1-2.25,1.06C84.39,61.18,83.3,60,83.3,57.68Zm5,1.93V55.47a2.94,2.94,0,0,0-2.07-.93c-1.43,0-2.52,1.4-2.52,3.14s.84,3.11,2.35,3.11A3.2,3.2,0,0,0,88.34,59.61Z"/><path class="cls-2" d="M94.7,60.34h0l-.06.67h-.36V50.9h.42v3l0,1.34A4,4,0,0,1,97,54.15c1.82,0,2.69,1.34,2.69,3.42,0,2.27-1.37,3.61-3,3.61A3.58,3.58,0,0,1,94.7,60.34Zm4.56-2.77c0-1.71-.61-3-2.27-3a3.73,3.73,0,0,0-2.32,1.18v4.14a3.39,3.39,0,0,0,2.1.93C98.23,60.79,99.26,59.44,99.26,57.57Z"/><path class="cls-2" d="M101.19,57.68c0-2.19,1.4-3.53,2.89-3.53s2.52,1.09,2.52,3.08a2.43,2.43,0,0,1,0,.45h-4.93c0,1.79,1,3.11,2.63,3.11a3,3,0,0,0,1.85-.62l.2.37a3.62,3.62,0,0,1-2.07.64C102.57,61.18,101.19,59.86,101.19,57.68Zm5-.39c0-1.85-.84-2.75-2.1-2.75s-2.3,1-2.44,2.75Z"/><path class="cls-2" d="M107.74,59.37c0-1.49,1.38-2.19,4.4-2.53,0-1.09-.25-2.3-1.65-2.3a3.69,3.69,0,0,0-2.18.81l-.23-.33a4.33,4.33,0,0,1,2.44-.87c1.57,0,2,1.18,2,2.52V61h-.36l-.06-.89h0a4.14,4.14,0,0,1-2.44,1.06A1.73,1.73,0,0,1,107.74,59.37Zm4.4.27V57.2c-2.94.34-4,1-4,2.16a1.35,1.35,0,0,0,1.52,1.43A3.77,3.77,0,0,0,112.14,59.64Z"/><path class="cls-2" d="M114.94,58.63V54.32h.42v4.26c0,1.48.48,2.21,1.63,2.21.84,0,1.45-.45,2.29-1.46v-5h.42V61h-.36l-.06-1.15h0a3.06,3.06,0,0,1-2.3,1.32C115.59,61.18,114.94,60.37,114.94,58.63Z"/><path class="cls-2" d="M122.53,59.25V54.71h-1.07v-.34l1.07,0,.06-2H123v2h2v.39h-2V59.3c0,.87.2,1.49,1.18,1.49a2.3,2.3,0,0,0,.86-.23l.14.37a3.84,3.84,0,0,1-1,.25C122.86,61.18,122.53,60.4,122.53,59.25Z"/><path class="cls-2" d="M126.36,52.13a.48.48,0,0,1,1,0,.48.48,0,0,1-1,0Zm.26,2.19H127V61h-.42Z"/><path class="cls-2" d="M128.86,54.37l.92,0h2v.39h-2.94Zm.92-1.71c0-1.31.59-1.93,1.54-1.93a2.4,2.4,0,0,1,.93.23l-.14.36a1.83,1.83,0,0,0-.82-.2c-.75,0-1.09.59-1.09,1.6V61h-.42Z"/><path class="cls-2" d="M133.14,58.63V54.32h.42v4.26c0,1.48.48,2.21,1.63,2.21.84,0,1.45-.45,2.29-1.46v-5h.42V61h-.36l-.06-1.15h0a3,3,0,0,1-2.29,1.32C133.78,61.18,133.14,60.37,133.14,58.63Z"/><path class="cls-2" d="M140.59,60.28V50.9H141v9.47c0,.28.11.42.28.42a1,1,0,0,0,.25,0l.09.37a1.74,1.74,0,0,1-.37,0C140.84,61.18,140.59,60.93,140.59,60.28Z"/><path class="cls-2" d="M146.1,59.37c0-1.49,1.38-2.19,4.4-2.53,0-1.09-.25-2.3-1.65-2.3a3.72,3.72,0,0,0-2.19.81l-.22-.33a4.33,4.33,0,0,1,2.44-.87c1.57,0,2,1.18,2,2.52V61h-.36l-.06-.89h0A4.09,4.09,0,0,1,148,61.18,1.73,1.73,0,0,1,146.1,59.37Zm4.4.27V57.2c-2.94.34-3.95,1-3.95,2.16a1.35,1.35,0,0,0,1.52,1.43A3.77,3.77,0,0,0,150.5,59.64Z"/><path class="cls-2" d="M153.41,54.32h.37l.05.87h0a4,4,0,0,1,2.33-1c1.82,0,2.69,1.34,2.69,3.42,0,2.27-1.38,3.61-3,3.61a3.69,3.69,0,0,1-2.08-.84v3.78h-.42Zm5,3.25c0-1.71-.62-3-2.27-3a3.82,3.82,0,0,0-2.33,1.18v4.14a3.46,3.46,0,0,0,2.1.93C157.39,60.79,158.43,59.44,158.43,57.57Z"/><path class="cls-2" d="M161,54.32h.37l0,.87h0a4,4,0,0,1,2.33-1c1.82,0,2.69,1.34,2.69,3.42,0,2.27-1.38,3.61-3,3.61a3.69,3.69,0,0,1-2.08-.84v3.78H161Zm5,3.25c0-1.71-.62-3-2.27-3a3.82,3.82,0,0,0-2.33,1.18v4.14a3.48,3.48,0,0,0,2.1.93C165,60.79,166,59.44,166,57.57Z"/><path class="cls-2" d="M167.66,60.26l.28-.34a3.12,3.12,0,0,0,2.19.87c1.12,0,1.71-.67,1.71-1.43s-.9-1.29-1.68-1.57c-1-.36-2.19-.76-2.19-1.9,0-.93.73-1.74,2.1-1.74a3,3,0,0,1,1.85.67l-.25.34a2.54,2.54,0,0,0-1.63-.62c-1.12,0-1.62.66-1.62,1.32,0,.81.81,1.12,1.62,1.43,1.07.4,2.25.72,2.25,2a2,2,0,0,1-2.19,1.85A3.78,3.78,0,0,1,167.66,60.26Z"/><path class="cls-2" d="M40.74,108.08c0-2.24,1.4-3.53,3-3.53a2.74,2.74,0,0,1,2,.84l-.28.31a2.42,2.42,0,0,0-1.68-.76c-1.43,0-2.55,1.29-2.55,3.14s1,3.11,2.55,3.11a2.76,2.76,0,0,0,1.88-.81l.25.3a3.13,3.13,0,0,1-2.13.9C42,111.58,40.74,110.29,40.74,108.08Z"/><path class="cls-2" d="M46.76,108.08c0-2.24,1.37-3.53,3-3.53s3,1.29,3,3.53-1.37,3.5-3,3.5S46.76,110.29,46.76,108.08Zm5.49,0c0-1.85-1.09-3.14-2.52-3.14s-2.52,1.29-2.52,3.14,1.09,3.11,2.52,3.11S52.25,109.93,52.25,108.08Z"/><path class="cls-2" d="M54.8,104.72h.36l.06,1.06h0a3.32,3.32,0,0,1,2.32-1.23c1.37,0,2,.81,2,2.55v4.31h-.42v-4.26c0-1.48-.48-2.21-1.63-2.21-.84,0-1.45.45-2.32,1.35v5.12H54.8Z"/><path class="cls-2" d="M62.3,109.65v-4.54H61.24v-.34l1.06,0,.06-2h.36v2h2v.39h-2v4.59c0,.87.2,1.49,1.18,1.49a2.59,2.59,0,0,0,.87-.22l.14.36a4,4,0,0,1-1,.25C62.64,111.58,62.3,110.8,62.3,109.65Z"/><path class="cls-2" d="M65.58,109.77c0-1.49,1.37-2.19,4.4-2.53,0-1.09-.26-2.3-1.66-2.3a3.69,3.69,0,0,0-2.18.81l-.23-.33a4.33,4.33,0,0,1,2.44-.87c1.57,0,2.05,1.18,2.05,2.52v4.34H70l0-.89h0a4.09,4.09,0,0,1-2.44,1.06A1.73,1.73,0,0,1,65.58,109.77ZM70,110V107.6c-3,.34-4,1-4,2.16a1.34,1.34,0,0,0,1.51,1.43A3.81,3.81,0,0,0,70,110Z"/><path class="cls-2" d="M72.3,108.08c0-2.24,1.4-3.53,3-3.53a2.75,2.75,0,0,1,2,.84l-.28.31a2.43,2.43,0,0,0-1.69-.76c-1.42,0-2.54,1.29-2.54,3.14s1,3.11,2.54,3.11a2.74,2.74,0,0,0,1.88-.81l.25.3a3.13,3.13,0,0,1-2.13.9C73.59,111.58,72.3,110.29,72.3,108.08Z"/><path class="cls-2" d="M79.13,109.65v-4.54H78.07v-.34l1.06,0,.06-2h.36v2h2v.39h-2v4.59c0,.87.2,1.49,1.18,1.49a2.48,2.48,0,0,0,.86-.22l.14.36a3.84,3.84,0,0,1-1,.25C79.47,111.58,79.13,110.8,79.13,109.65Z"/><path class="cls-2" d="M85.91,109v-4.31h.42V109c0,1.48.47,2.21,1.62,2.21.84,0,1.46-.45,2.3-1.46v-5h.42v6.69H90.3l0-1.15h0a3,3,0,0,1-2.3,1.32C86.55,111.58,85.91,110.77,85.91,109Z"/><path class="cls-2" d="M92.48,110.66l.28-.34a3.14,3.14,0,0,0,2.19.87c1.12,0,1.71-.67,1.71-1.43s-.9-1.29-1.68-1.57c-1-.36-2.19-.76-2.19-1.9,0-.93.73-1.74,2.1-1.74a3,3,0,0,1,1.85.67l-.25.34a2.54,2.54,0,0,0-1.62-.62c-1.12,0-1.63.66-1.63,1.32s.81,1.12,1.63,1.43c1.06.4,2.24.73,2.24,2a2,2,0,0,1-2.19,1.85A3.78,3.78,0,0,1,92.48,110.66Z"/><path class="cls-2" d="M101.89,109.65v-4.54h-1.06v-.34l1.06,0,.06-2h.36v2h2v.39h-2v4.59c0,.87.2,1.49,1.18,1.49a2.54,2.54,0,0,0,.87-.22l.14.36a3.81,3.81,0,0,1-1,.25C102.23,111.58,101.89,110.8,101.89,109.65Z"/><path class="cls-2" d="M105.25,108.08c0-2.24,1.38-3.53,3-3.53s3,1.29,3,3.53-1.37,3.5-3,3.5S105.25,110.29,105.25,108.08Zm5.49,0c0-1.85-1.09-3.14-2.52-3.14s-2.52,1.29-2.52,3.14,1.09,3.11,2.52,3.11S110.74,109.93,110.74,108.08Z"/><path class="cls-2" d="M116.09,110.68V101.3h.42v9.47c0,.28.11.42.28.42a1,1,0,0,0,.25,0l.09.37a1.74,1.74,0,0,1-.37,0C116.34,111.58,116.09,111.33,116.09,110.68Z"/><path class="cls-2" d="M118.72,108.08c0-2.19,1.4-3.53,2.89-3.53s2.52,1.09,2.52,3.08a2.43,2.43,0,0,1,0,.45h-4.93c0,1.79,1,3.11,2.63,3.11a3,3,0,0,0,1.85-.62l.2.37a3.58,3.58,0,0,1-2.08.64C120.09,111.58,118.72,110.26,118.72,108.08Zm5-.39c0-1.85-.84-2.75-2.1-2.75s-2.3,1-2.44,2.75Z"/><path class="cls-2" d="M125.27,109.77c0-1.49,1.38-2.19,4.4-2.53,0-1.09-.25-2.3-1.65-2.3a3.72,3.72,0,0,0-2.19.81l-.22-.33a4.3,4.3,0,0,1,2.44-.87c1.56,0,2,1.18,2,2.52v4.34h-.36l-.06-.89h0a4.09,4.09,0,0,1-2.43,1.06A1.73,1.73,0,0,1,125.27,109.77Zm4.4.27V107.6c-2.94.34-3.95,1-3.95,2.16a1.34,1.34,0,0,0,1.51,1.43A3.79,3.79,0,0,0,129.67,110Z"/><path class="cls-2" d="M132.58,104.72h.36L133,106h0a2.34,2.34,0,0,1,1.9-1.43,1.39,1.39,0,0,1,.65.14l-.11.39a1.47,1.47,0,0,0-.59-.11c-.62,0-1.35.48-1.88,1.79v4.65h-.42Z"/><path class="cls-2" d="M136.86,104.72h.37l.06,1.06h0a3.32,3.32,0,0,1,2.33-1.23c1.37,0,2,.81,2,2.55v4.31h-.42v-4.26c0-1.48-.48-2.21-1.63-2.21-.84,0-1.46.45-2.32,1.35v5.12h-.43Z"/><path class="cls-2" d="M147,104.72h.36l.06,1.06h0a3.14,3.14,0,0,1,2.13-1.23,1.71,1.71,0,0,1,1.84,1.4,3.42,3.42,0,0,1,2.3-1.4c1.32,0,2,.81,2,2.55v4.31h-.42v-4.26c0-1.48-.5-2.21-1.6-2.21-.67,0-1.34.45-2.13,1.35v5.12h-.42v-4.26c0-1.48-.5-2.21-1.59-2.21a3.11,3.11,0,0,0-2.13,1.35v5.12H147Z"/><path class="cls-2" d="M157.72,108.08c0-2.24,1.38-3.53,3-3.53s3,1.29,3,3.53-1.37,3.5-3,3.5S157.72,110.29,157.72,108.08Zm5.5,0c0-1.85-1.1-3.14-2.53-3.14s-2.52,1.29-2.52,3.14,1.1,3.11,2.52,3.11S163.22,109.93,163.22,108.08Z"/><path class="cls-2" d="M165.76,104.72h.36l.06,1.26h0a2.34,2.34,0,0,1,1.9-1.43,1.39,1.39,0,0,1,.65.14l-.11.39a1.47,1.47,0,0,0-.59-.11c-.62,0-1.35.48-1.88,1.79v4.65h-.42Z"/><path class="cls-2" d="M169.32,108.08c0-2.19,1.4-3.53,2.88-3.53s2.52,1.09,2.52,3.08a2.43,2.43,0,0,1,0,.45h-4.93c0,1.79,1,3.11,2.64,3.11a3,3,0,0,0,1.85-.62l.19.37a3.52,3.52,0,0,1-2.07.64C170.69,111.58,169.32,110.26,169.32,108.08Zm5-.39c0-1.85-.84-2.75-2.1-2.75a2.68,2.68,0,0,0-2.44,2.75Z"/><path class="cls-2" d="M45.42,155.12h.36l.06,1.06h0A3.14,3.14,0,0,1,48,155a1.71,1.71,0,0,1,1.84,1.4,3.42,3.42,0,0,1,2.3-1.4c1.32,0,2,.81,2,2.55v4.31h-.42v-4.26c0-1.48-.5-2.21-1.6-2.21-.67,0-1.34.45-2.13,1.35v5.12h-.42v-4.26c0-1.48-.5-2.21-1.59-2.21a3.11,3.11,0,0,0-2.13,1.35v5.12h-.42Z"/><path class="cls-2" d="M56.45,152.93a.48.48,0,0,1,.95,0,.48.48,0,1,1-.95,0Zm.25,2.19h.42v6.69H56.7Z"/><path class="cls-2" d="M59.81,151.7h.42v7.68h0l3.47-4.26h.51l-2.16,2.63,2.55,4.06h-.48l-2.32-3.72L60.23,160v1.85h-.42Z"/><path class="cls-2" d="M65.41,158.48c0-2.24,1.37-3.53,3-3.53s3,1.29,3,3.53-1.37,3.5-3,3.5S65.41,160.69,65.41,158.48Zm5.49,0c0-1.85-1.09-3.14-2.52-3.14s-2.52,1.29-2.52,3.14,1.09,3.11,2.52,3.11S70.9,160.33,70.9,158.48Z"/><path class="cls-2" d="M73.45,161.08V151.7h.42v9.47c0,.28.11.42.28.42a1,1,0,0,0,.25,0l.08.37a1.55,1.55,0,0,1-.36,0C73.7,162,73.45,161.73,73.45,161.08Z"/><path class="cls-2" d="M76.16,160.17c0-1.49,1.37-2.2,4.4-2.53,0-1.09-.25-2.3-1.65-2.3a3.7,3.7,0,0,0-2.19.81l-.22-.33a4.29,4.29,0,0,1,2.43-.87c1.57,0,2,1.18,2,2.52v4.34h-.36l-.06-.89h0A4.09,4.09,0,0,1,78.09,162,1.73,1.73,0,0,1,76.16,160.17Zm4.4.27V158c-2.94.34-4,1-4,2.16a1.34,1.34,0,0,0,1.51,1.43A3.81,3.81,0,0,0,80.56,160.44Z"/><path class="cls-2" d="M81.7,164.92l.12-.36a2.55,2.55,0,0,0,.73.14c.78,0,.92-.65.92-1.51v-8.07h.42v8.12c0,1.29-.45,1.85-1.37,1.85A2.25,2.25,0,0,1,81.7,164.92Zm1.52-12a.48.48,0,0,1,1,0,.48.48,0,1,1-1,0Z"/><path class="cls-2" d="M86,159a5.61,5.61,0,0,1,5.46-6,4.06,4.06,0,0,1,4.32,4.37c0,2.35-1.37,3.61-2.5,3.61-.72,0-1.26-.34-1.31-1.06h0a2.52,2.52,0,0,1-1.71,1c-.84,0-1.57-.62-1.57-1.88s.93-3.11,2.58-3.11a1.32,1.32,0,0,1,1.18.67h0l.12-.56h.36l-.48,2.58c-.33,1.34,0,2,.87,2s2-1.15,2-3.2a3.7,3.7,0,0,0-3.92-4,5.24,5.24,0,0,0-5,5.55c0,2.71,1.68,4.45,4.23,4.45a4.34,4.34,0,0,0,2.38-.7l.2.34a4.76,4.76,0,0,1-2.61.75C87.89,163.8,86,162,86,159Zm5.86.56.44-2.49c-.36-.56-.64-.73-1.09-.73-1.31,0-2.13,1.46-2.13,2.69s.53,1.51,1.18,1.51A2.28,2.28,0,0,0,91.82,159.54Z"/><path class="cls-2" d="M97.69,159.43v-4.31h.42v4.26c0,1.48.48,2.21,1.63,2.21.84,0,1.45-.45,2.3-1.46v-5h.42v6.69h-.37l0-1.15h0a3,3,0,0,1-2.3,1.32C98.34,162,97.69,161.17,97.69,159.43Z"/><path class="cls-2" d="M105.59,161.14h0l0,.67h-.37V151.7h.42v3l0,1.34a4,4,0,0,1,2.38-1.09c1.83,0,2.69,1.34,2.69,3.42,0,2.27-1.37,3.61-3,3.61A3.58,3.58,0,0,1,105.59,161.14Zm4.57-2.77c0-1.71-.62-3-2.27-3a3.75,3.75,0,0,0-2.33,1.18v4.14a3.41,3.41,0,0,0,2.1.93C109.12,161.59,110.16,160.24,110.16,158.37Z"/><path class="cls-2" d="M112.42,152.93a.45.45,0,0,1,.48-.47.45.45,0,0,1,.47.47.47.47,0,0,1-.47.48A.48.48,0,0,1,112.42,152.93Zm.25,2.19h.42v6.69h-.42Z"/><path class="cls-2" d="M115.78,151.7h.42v7.68h0l3.47-4.26h.51l-2.16,2.63,2.55,4.06h-.48l-2.32-3.72L116.2,160v1.85h-.42Z"/><path class="cls-2" d="M122,161.45a.5.5,0,1,1,.5.53A.51.51,0,0,1,122,161.45Z"/><path class="cls-2" d="M124.43,161.06l.28-.34a3.12,3.12,0,0,0,2.19.87c1.12,0,1.71-.67,1.71-1.43s-.9-1.29-1.68-1.57c-1-.36-2.19-.76-2.19-1.9,0-.93.73-1.74,2.1-1.74a3.07,3.07,0,0,1,1.85.67l-.25.34a2.56,2.56,0,0,0-1.63-.62c-1.12,0-1.62.66-1.62,1.32,0,.81.81,1.12,1.62,1.43,1.07.4,2.24.72,2.24,2a1.94,1.94,0,0,1-2.18,1.85A3.78,3.78,0,0,1,124.43,161.06Z"/><path class="cls-2" d="M130.31,158.48c0-2.24,1.37-3.53,3-3.53s3,1.29,3,3.53-1.37,3.5-3,3.5S130.31,160.69,130.31,158.48Zm5.49,0c0-1.85-1.09-3.14-2.52-3.14s-2.52,1.29-2.52,3.14,1.09,3.11,2.52,3.11S135.8,160.33,135.8,158.48Z"/><path class="cls-2" d="M141.51,160.05v-4.54h-4v-.34l.92,0h3.11l.06-2h.36v2h2v.39h-2v4.59c0,.87.2,1.49,1.18,1.49a2.35,2.35,0,0,0,.87-.23l.14.37a3.81,3.81,0,0,1-1,.25C141.85,162,141.51,161.2,141.51,160.05Zm-3.11-6.59c0-1.31.59-1.93,1.54-1.93a2.35,2.35,0,0,1,.93.23l-.14.36a1.82,1.82,0,0,0-.81-.2c-.76,0-1.1.59-1.1,1.6v8.29h-.42Z"/><path class="cls-2" d="M144.59,155.12h.48l1.29,4.51c.16.61.33,1.17.47,1.76h.06c.17-.59.34-1.15.5-1.76l1.29-4.51h.59l1.29,4.51c.17.61.34,1.17.5,1.76h.06c.17-.59.34-1.15.5-1.76l1.26-4.51h.45l-2,6.69h-.59l-1.26-4.37c-.19-.64-.33-1.26-.53-1.9h-.06a20,20,0,0,1-.56,1.93l-1.23,4.34h-.53Z"/><path class="cls-2" d="M154.36,160.17c0-1.49,1.38-2.2,4.4-2.53,0-1.09-.25-2.3-1.65-2.3a3.72,3.72,0,0,0-2.19.81l-.22-.33a4.3,4.3,0,0,1,2.44-.87c1.57,0,2,1.18,2,2.52v4.34h-.36l-.06-.89h0A4.09,4.09,0,0,1,156.3,162,1.73,1.73,0,0,1,154.36,160.17Zm4.4.27V158c-2.94.34-3.95,1-3.95,2.16a1.35,1.35,0,0,0,1.52,1.43A3.77,3.77,0,0,0,158.76,160.44Z"/><path class="cls-2" d="M161.67,155.12H162l.05,1.26h0A2.34,2.34,0,0,1,164,155a1.35,1.35,0,0,1,.64.14l-.11.39a1.47,1.47,0,0,0-.59-.11c-.62,0-1.35.48-1.88,1.79v4.65h-.42Z"/><path class="cls-2" d="M165.23,158.48c0-2.19,1.4-3.53,2.88-3.53s2.52,1.09,2.52,3.08a3.62,3.62,0,0,1,0,.45h-4.93c0,1.79,1,3.11,2.63,3.11a3,3,0,0,0,1.85-.62l.19.37a3.6,3.6,0,0,1-2.07.64C166.6,162,165.23,160.66,165.23,158.48Zm5-.39c0-1.85-.84-2.75-2.1-2.75s-2.29,1-2.43,2.75Z"/></g></g></svg>