<svg xmlns="http://www.w3.org/2000/svg" xmlns:xlink="http://www.w3.org/1999/xlink" viewBox="0 0 215.23 215.23"><defs><style>.cls-1{fill:url(#Earthtone_30);}.cls-2,.cls-3{fill:none;stroke:#fff;stroke-miterlimit:10;}.cls-2{stroke-linecap:round;}</style><linearGradient id="Earthtone_30" y1="107.62" x2="215.23" y2="107.62" gradientUnits="userSpaceOnUse"><stop offset="0" stop-color="#4a6876"/><stop offset="0.54" stop-color="#0a3542"/><stop offset="1" stop-color="#000315"/></linearGradient></defs><title>Asset 9</title><g id="Layer_2" data-name="Layer 2"><g id="Layer_2-2" data-name="Layer 2"><circle class="cls-1" cx="107.62" cy="107.62" r="107.62"/><line class="cls-2" x1="108.41" y1="169.95" x2="108.03" y2="112.95"/><line class="cls-2" x1="97.19" y1="115.76" x2="84.2" y2="154.34"/><path class="cls-3" d="M196.18,92c-9.36,3.13-22.44,5.74-38,7.54a447,447,0,0,1-50.89,2.77H107a451.61,451.61,0,0,1-50-2.63C41,97.91,27.48,95.25,17.89,92c6-4.79,13.84-9,23.06-12.57q3.06.69,6.49,1.32c15.5,2.84,36.5,4.58,59.6,4.58h.23c23.33,0,44.48-1.79,60-4.69q3.09-.59,5.87-1.21C182.34,83,190.17,87.25,196.18,92Z"/><path class="cls-3" d="M173.13,79.47q-2.77.63-5.87,1.21c-15.51,2.9-36.66,4.68-60,4.69H107c-23.1,0-44.1-1.74-59.6-4.58Q44,80.16,41,79.47a157.49,157.49,0,0,1,27.81-7.6c2.09-.38,4.22-.74,6.39-1.05l.12,0,1.79.54h0q2.7.78,5.63,1.41l1.51.31,1.52.29c.43.09.87.16,1.31.23,1.09.19,2.2.36,3.32.52l1.47.19,1.25.15,1.87.2c.81.08,1.64.16,2.47.22L99,75c.67,0,1.33.09,2,.12,2,.1,4.13.16,6.24.16h.18q3.4,0,6.7-.17L116.2,75c1.56-.1,3.1-.24,4.61-.4l1.45-.16.61-.08,1.42-.19c.77-.1,1.53-.21,2.28-.34s1.28-.2,1.91-.32,1-.18,1.49-.27c1.16-.22,2.29-.46,3.4-.72l1.09-.26c1.14-.27,2.24-.56,3.32-.87l1.55-.46a2.32,2.32,0,0,1,.38.06c1.93.29,3.84.6,5.71,1A157.44,157.44,0,0,1,173.13,79.47Z"/><path class="cls-3" d="M107.32,102.35a447,447,0,0,0,50.89-2.77c-11.88,4.32-30.21,7.09-50.79,7.09-20.35,0-38.5-2.71-50.39-7a451.61,451.61,0,0,0,50,2.63Z"/><path class="cls-3" d="M139.69,70.77l-.36.11-1.55.46c-1.08.31-2.18.6-3.32.87l-1.09.26c-1.11.26-2.24.5-3.4.72-.49.09-1,.19-1.49.27s-1.27.22-1.91.32-1.51.24-2.28.34l-1.42.19-.61.08-1.45.16c-1.51.16-3,.3-4.61.4l-2.08.13q-3.3.17-6.7.17h-.18c-2.11,0-4.2-.06-6.24-.16-.67,0-1.33-.07-2-.12l-1.58-.11c-.83-.06-1.66-.14-2.47-.22l-1.87-.2-1.25-.15-1.47-.19c-1.12-.16-2.23-.33-3.32-.52-.44-.07-.88-.14-1.31-.23l-1.52-.29-1.51-.31q-2.92-.63-5.63-1.41h0l-1.79-.54-.11,0a24.88,24.88,0,0,1,.76-3.34,28,28,0,0,1,3.69-7.84A30.45,30.45,0,0,1,86,52.68a34.05,34.05,0,0,1,21.18-7.38h.26a34.19,34.19,0,0,1,21.51,7.43,31.05,31.05,0,0,1,6.35,6.91,28.67,28.67,0,0,1,3.66,7.82A26.19,26.19,0,0,1,139.69,70.77Z"/><line class="cls-2" x1="119.59" y1="116.37" x2="132.58" y2="154.95"/></g></g></svg>